<svg xmlns="http://www.w3.org/2000/svg" version="1.1" xmlns:xlink="http://www.w3.org/1999/xlink" xmlns:svgjs="http://svgjs.dev/svgjs" width="1500" height="1500" viewBox="0 0 1500 1500"><rect width="1500" height="1500" fill="#000000"></rect><g transform="matrix(0.6666666666666666,0,0,0.6666666666666666,249.2036002877099,104.19001349527667)"><svg viewBox="0 0 191 247" data-background-color="#000000" preserveAspectRatio="xMidYMid meet" height="1939" width="1500" xmlns="http://www.w3.org/2000/svg" xmlns:xlink="http://www.w3.org/1999/xlink"><g id="tight-bounds" transform="matrix(1,0,0,1,0.15211234504741356,-0.09999999999999432)"><svg viewBox="0 0 190.69577530990517 247.2" height="247.2" width="190.69577530990517"><g><svg viewBox="0 0 397.4975999999999 515.278361884591" height="247.2" width="190.69577530990517"><g></g><g></g><g transform="matrix(1,0,0,1,0.9887999999999693,351.83035169350825)"><svg viewBox="0 0 395.52 163.4480101910828" height="163.4480101910828" width="395.52"><g id="textblocktransform"><svg viewBox="0 0 395.52 163.4480101910828" height="163.4480101910828" width="395.52" id="textblock"><g><svg viewBox="0 0 395.52 163.4480101910828" height="163.4480101910828" width="395.52"><g transform="matrix(1,0,0,1,0,0)"><svg width="395.52" viewBox="3.78 -31.95 98.11 40.55" height="163.4480101910828" data-palette-color="url(#d7161439-c506-405d-b481-719f72ff2202)"></svg></g></svg></g></svg></g></svg></g><g transform="matrix(1,0,0,1,85.80622495796175,0)"><svg viewBox="0 0 225.88515008407643 225.88515008407643" height="225.88515008407643" width="225.88515008407643"><g><svg version="1.1" xmlns:dc="http://purl.org/dc/elements/1.1/" xmlns:inkscape="http://www.inkscape.org/namespaces/inkscape" xmlns:rdf="http://www.w3.org/1999/02/22-rdf-syntax-ns#" xmlns:cc="http://creativecommons.org/ns#" xmlns:svg="http://www.w3.org/2000/svg" xmlns:sodipodi="http://sodipodi.sourceforge.net/DTD/sodipodi-0.dtd" xmlns="http://www.w3.org/2000/svg" xmlns:xlink="http://www.w3.org/1999/xlink" x="0" y="0" viewBox="0 0 100 100" enable-background="new 0 0 100 100" xml:space="preserve" height="225.88515008407643" width="225.88515008407643" class="icon-icon-0" data-fill-palette-color="accent" id="icon-0"></svg></g></svg></g><g></g></svg></g><defs></defs><mask id="e9f9722b-b2bb-4fcd-ad2e-fed634428e6b"><g id="SvgjsG1006"><svg viewBox="0 0 190.69577530990517 247.2" height="247.2" width="190.69577530990517"><g><svg viewBox="0 0 397.4975999999999 515.278361884591" height="247.2" width="190.69577530990517"><g><rect width="397.4975999999999" height="14.739910237378364" x="0" y="264.4713025379465" fill="white" opacity="1" stroke-width="0" stroke="transparent" fill-opacity="1" class="rect-qz-0" rx="1%" id="SvgjsRect1005" data-palette-color="url(#d7161439-c506-405d-b481-719f72ff2202)"></rect></g><g><rect width="397.4975999999999" height="14.739910237378364" x="0" y="298.50428900225984" fill="white" opacity="1" stroke-width="0" stroke="transparent" fill-opacity="1" class="rect-qz-1" rx="1%" id="SvgjsRect1004" data-palette-color="url(#d7161439-c506-405d-b481-719f72ff2202)"></rect></g><g transform="matrix(1,0,0,1,0.9887999999999693,351.83035169350825)"><svg viewBox="0 0 395.52 163.4480101910828" height="163.4480101910828" width="395.52"><g id="SvgjsG1003"><svg viewBox="0 0 395.52 163.4480101910828" height="163.4480101910828" width="395.52" id="SvgjsSvg1002"><g><svg viewBox="0 0 395.52 163.4480101910828" height="163.4480101910828" width="395.52"><g transform="matrix(1,0,0,1,0,0)"><svg width="395.52" viewBox="3.78 -31.95 98.11 40.55" height="163.4480101910828" data-palette-color="url(#d7161439-c506-405d-b481-719f72ff2202)"><path d="M17.05 0L6.6 0 6.6-3.43 16.65-3.43Q19.9-3.43 21.26-4.81 22.63-6.2 22.63-8.65L22.63-8.65 22.63-9.55Q22.63-12.05 21.24-13.43 19.85-14.8 16.4-14.8L16.4-14.8 6.63-14.8 6.63-18.07 16.35-18.07Q19.43-18.07 20.74-19.41 22.05-20.75 22.05-23.13L22.05-23.13 22.05-23.58Q22.05-25.93 20.79-27.24 19.53-28.55 16.32-28.55L16.32-28.55 6.53-28.55 6.53-31.95 16.7-31.95Q21.8-31.95 24-29.93 26.2-27.9 26.2-24.23L26.2-24.23 26.2-23.73Q26.2-20.8 24.8-19.13 23.4-17.45 20.45-17.13L20.45-17.13 20.43-16.98Q23.8-16.48 25.33-14.63 26.85-12.78 26.85-9.47L26.85-9.47 26.85-8.45Q26.85-4.48 24.55-2.24 22.25 0 17.05 0L17.05 0ZM7.88 0L3.78 0 3.78-31.95 7.88-31.95 7.88 0ZM32.05-24.4L36.07-24.4 36.07-9.22Q36.07-7.3 36.61-5.86 37.15-4.42 38.37-3.64 39.6-2.85 41.67-2.85L41.67-2.85Q43.62-2.85 45.02-3.56 46.42-4.28 47.31-5.53 48.2-6.78 48.52-8.35L48.52-8.35 49.25-5.48 48.37-5.48Q48-3.83 47-2.46 46-1.1 44.31-0.29 42.62 0.53 40.15 0.53L40.15 0.53Q37.27 0.53 35.48-0.56 33.7-1.65 32.87-3.74 32.05-5.83 32.05-8.78L32.05-8.78 32.05-24.4ZM48.35-24.4L52.4-24.4 52.4 0 48.35 0 48.52-5.85 48.35-6.1 48.35-24.4ZM62.57-3.35L76.25-3.35 76.25 0 57.72 0 57.72-3.05 71.3-21.08 57.77-21.08 57.77-24.4 76.15-24.4 76.15-21.38 62.57-3.35ZM90.22-3.78L92.54-3.78 90.42-2.85 97.72-24.4 101.89-24.4 90.42 8.6 86.32 8.6 90.17-2.55 91.94-1 87.34-1 79.37-24.4 83.57-24.4 90.22-3.78Z" opacity="1" transform="matrix(1,0,0,1,0,0)" fill="white" class="wordmark-text-0" id="SvgjsPath1001"></path></svg></g></svg></g></svg></g></svg></g><g transform="matrix(1,0,0,1,85.80622495796175,0)"><svg viewBox="0 0 225.88515008407643 225.88515008407643" height="225.88515008407643" width="225.88515008407643"><g><svg version="1.1" xmlns:dc="http://purl.org/dc/elements/1.1/" xmlns:inkscape="http://www.inkscape.org/namespaces/inkscape" xmlns:rdf="http://www.w3.org/1999/02/22-rdf-syntax-ns#" xmlns:cc="http://creativecommons.org/ns#" xmlns:svg="http://www.w3.org/2000/svg" xmlns:sodipodi="http://sodipodi.sourceforge.net/DTD/sodipodi-0.dtd" xmlns="http://www.w3.org/2000/svg" xmlns:xlink="http://www.w3.org/1999/xlink" x="0" y="0" viewBox="0 0 100 100" enable-background="new 0 0 100 100" xml:space="preserve" height="225.88515008407643" width="225.88515008407643" class="icon-icon-0" data-fill-palette-color="accent" id="SvgjsSvg1000"><path d="M50 0C22.386 0 0 22.386 0 50s22.386 50 50 50 50-22.386 50-50S77.614 0 50 0zM50 14.156c19.799 0 35.844 16.044 35.844 35.844 0 19.799-16.045 35.844-35.844 35.844-19.799 0-35.844-16.045-35.844-35.844C14.156 30.201 30.201 14.156 50 14.156zM50 20.125c-16.505 0-29.875 13.37-29.875 29.875S33.495 79.875 50 79.875 79.875 66.505 79.875 50 66.505 20.125 50 20.125zM50 29.75c11.178 0 20.25 9.072 20.25 20.25S61.178 70.25 50 70.25 29.75 61.178 29.75 50 38.822 29.75 50 29.75z" fill="black"></path></svg></g></svg></g><g></g></svg></g><defs><mask></mask></defs></svg><rect width="190.69577530990517" height="247.2" fill="black" stroke="none" visibility="hidden"></rect></g></mask><linearGradient x1="0" x2="1" y1="0.578" y2="0.595" id="d7161439-c506-405d-b481-719f72ff2202"><stop stop-color="#6ee2f5" offset="0"></stop><stop stop-color="#6454f0" offset="1"></stop></linearGradient><rect width="190.69577530990517" height="247.2" fill="#ffffff" mask="url(#e9f9722b-b2bb-4fcd-ad2e-fed634428e6b)" data-fill-palette-color="primary"></rect><mask id="cb6c57e9-7fea-4e5f-a791-ed2e8586a43d"><g id="SvgjsG1029"><svg viewBox="0 0 190.69577530990517 247.2" height="247.2" width="190.69577530990517"><g><svg viewBox="0 0 397.4975999999999 515.278361884591" height="247.2" width="190.69577530990517"><g></g><g></g><g transform="matrix(1,0,0,1,0.9887999999999693,351.83035169350825)"><svg viewBox="0 0 395.52 163.4480101910828" height="163.4480101910828" width="395.52"><g id="SvgjsG1028"><svg viewBox="0 0 395.52 163.4480101910828" height="163.4480101910828" width="395.52" id="SvgjsSvg1027"><g><svg viewBox="0 0 395.52 163.4480101910828" height="163.4480101910828" width="395.52"><g transform="matrix(1,0,0,1,0,0)"><svg width="395.52" viewBox="3.78 -31.95 98.11 40.55" height="163.4480101910828" data-palette-color="url(#d7161439-c506-405d-b481-719f72ff2202)"></svg></g></svg></g></svg></g></svg></g><g transform="matrix(1,0,0,1,85.80622495796175,0)"><svg viewBox="0 0 225.88515008407643 225.88515008407643" height="225.88515008407643" width="225.88515008407643"><g><svg version="1.1" xmlns:dc="http://purl.org/dc/elements/1.1/" xmlns:inkscape="http://www.inkscape.org/namespaces/inkscape" xmlns:rdf="http://www.w3.org/1999/02/22-rdf-syntax-ns#" xmlns:cc="http://creativecommons.org/ns#" xmlns:svg="http://www.w3.org/2000/svg" xmlns:sodipodi="http://sodipodi.sourceforge.net/DTD/sodipodi-0.dtd" xmlns="http://www.w3.org/2000/svg" xmlns:xlink="http://www.w3.org/1999/xlink" x="0" y="0" viewBox="0 0 100 100" enable-background="new 0 0 100 100" xml:space="preserve" height="225.88515008407643" width="225.88515008407643" class="icon-icon-0" data-fill-palette-color="accent" id="SvgjsSvg1026"><path d="M50 0C22.386 0 0 22.386 0 50s22.386 50 50 50 50-22.386 50-50S77.614 0 50 0zM50 14.156c19.799 0 35.844 16.044 35.844 35.844 0 19.799-16.045 35.844-35.844 35.844-19.799 0-35.844-16.045-35.844-35.844C14.156 30.201 30.201 14.156 50 14.156zM50 20.125c-16.505 0-29.875 13.37-29.875 29.875S33.495 79.875 50 79.875 79.875 66.505 79.875 50 66.505 20.125 50 20.125zM50 29.75c11.178 0 20.25 9.072 20.25 20.25S61.178 70.25 50 70.25 29.75 61.178 29.75 50 38.822 29.75 50 29.75z" fill="white"></path></svg></g></svg></g><g></g></svg></g><defs><mask></mask></defs><mask><g id="SvgjsG1025"><svg viewBox="0 0 190.69577530990517 247.2" height="247.2" width="190.69577530990517"><g><svg viewBox="0 0 397.4975999999999 515.278361884591" height="247.2" width="190.69577530990517"><g><rect width="397.4975999999999" height="14.739910237378364" x="0" y="264.4713025379465" fill="black" opacity="1" stroke-width="0" stroke="transparent" fill-opacity="1" class="rect-qz-0" rx="1%" id="SvgjsRect1024" data-palette-color="url(#d7161439-c506-405d-b481-719f72ff2202)"></rect></g><g><rect width="397.4975999999999" height="14.739910237378364" x="0" y="298.50428900225984" fill="black" opacity="1" stroke-width="0" stroke="transparent" fill-opacity="1" class="rect-qz-1" rx="1%" id="SvgjsRect1023" data-palette-color="url(#d7161439-c506-405d-b481-719f72ff2202)"></rect></g><g transform="matrix(1,0,0,1,0.9887999999999693,351.83035169350825)"><svg viewBox="0 0 395.52 163.4480101910828" height="163.4480101910828" width="395.52"><g id="SvgjsG1022"><svg viewBox="0 0 395.52 163.4480101910828" height="163.4480101910828" width="395.52" id="SvgjsSvg1021"><g><svg viewBox="0 0 395.52 163.4480101910828" height="163.4480101910828" width="395.52"><g transform="matrix(1,0,0,1,0,0)"><svg width="395.52" viewBox="3.78 -31.95 98.11 40.55" height="163.4480101910828" data-palette-color="url(#d7161439-c506-405d-b481-719f72ff2202)"><path d="M17.05 0L6.6 0 6.6-3.43 16.65-3.43Q19.9-3.43 21.26-4.81 22.63-6.2 22.63-8.65L22.63-8.65 22.63-9.55Q22.63-12.05 21.24-13.43 19.85-14.8 16.4-14.8L16.4-14.8 6.63-14.8 6.63-18.07 16.35-18.07Q19.43-18.07 20.74-19.41 22.05-20.75 22.05-23.13L22.05-23.13 22.05-23.58Q22.05-25.93 20.79-27.24 19.53-28.55 16.32-28.55L16.32-28.55 6.53-28.55 6.53-31.95 16.7-31.95Q21.8-31.95 24-29.93 26.2-27.9 26.2-24.23L26.2-24.23 26.2-23.73Q26.2-20.8 24.8-19.13 23.4-17.45 20.45-17.13L20.45-17.13 20.43-16.98Q23.8-16.48 25.33-14.63 26.85-12.78 26.85-9.47L26.85-9.47 26.85-8.45Q26.85-4.48 24.55-2.24 22.25 0 17.05 0L17.05 0ZM7.88 0L3.78 0 3.78-31.95 7.88-31.95 7.88 0ZM32.05-24.4L36.07-24.4 36.07-9.22Q36.07-7.3 36.61-5.86 37.15-4.42 38.37-3.64 39.6-2.85 41.67-2.85L41.67-2.85Q43.62-2.85 45.02-3.56 46.42-4.28 47.31-5.53 48.2-6.78 48.52-8.35L48.52-8.35 49.25-5.48 48.37-5.48Q48-3.83 47-2.46 46-1.1 44.31-0.29 42.62 0.53 40.15 0.53L40.15 0.53Q37.27 0.53 35.48-0.56 33.7-1.65 32.87-3.74 32.05-5.83 32.05-8.78L32.05-8.78 32.05-24.4ZM48.35-24.4L52.4-24.4 52.4 0 48.35 0 48.52-5.85 48.35-6.1 48.35-24.4ZM62.57-3.35L76.25-3.35 76.25 0 57.72 0 57.72-3.05 71.3-21.08 57.77-21.08 57.77-24.4 76.15-24.4 76.15-21.38 62.57-3.35ZM90.22-3.78L92.54-3.78 90.42-2.85 97.72-24.4 101.89-24.4 90.42 8.6 86.32 8.6 90.17-2.55 91.94-1 87.34-1 79.37-24.4 83.57-24.4 90.22-3.78Z" opacity="1" transform="matrix(1,0,0,1,0,0)" fill="black" class="wordmark-text-0" id="SvgjsPath1020"></path></svg></g></svg></g></svg></g></svg></g><g transform="matrix(1,0,0,1,85.80622495796175,0)"><svg viewBox="0 0 225.88515008407643 225.88515008407643" height="225.88515008407643" width="225.88515008407643"><g><svg version="1.1" xmlns:dc="http://purl.org/dc/elements/1.1/" xmlns:inkscape="http://www.inkscape.org/namespaces/inkscape" xmlns:rdf="http://www.w3.org/1999/02/22-rdf-syntax-ns#" xmlns:cc="http://creativecommons.org/ns#" xmlns:svg="http://www.w3.org/2000/svg" xmlns:sodipodi="http://sodipodi.sourceforge.net/DTD/sodipodi-0.dtd" xmlns="http://www.w3.org/2000/svg" xmlns:xlink="http://www.w3.org/1999/xlink" x="0" y="0" viewBox="0 0 100 100" enable-background="new 0 0 100 100" xml:space="preserve" height="225.88515008407643" width="225.88515008407643" class="icon-icon-0" data-fill-palette-color="accent" id="SvgjsSvg1019"><path d="M50 0C22.386 0 0 22.386 0 50s22.386 50 50 50 50-22.386 50-50S77.614 0 50 0zM50 14.156c19.799 0 35.844 16.044 35.844 35.844 0 19.799-16.045 35.844-35.844 35.844-19.799 0-35.844-16.045-35.844-35.844C14.156 30.201 30.201 14.156 50 14.156zM50 20.125c-16.505 0-29.875 13.37-29.875 29.875S33.495 79.875 50 79.875 79.875 66.505 79.875 50 66.505 20.125 50 20.125zM50 29.75c11.178 0 20.25 9.072 20.25 20.25S61.178 70.25 50 70.25 29.75 61.178 29.75 50 38.822 29.75 50 29.75z" fill="black"></path></svg></g></svg></g><g></g></svg></g><defs><mask></mask></defs></svg><rect width="190.69577530990517" height="247.2" fill="black" stroke="none" visibility="hidden"></rect></g></mask></svg><rect width="190.69577530990517" height="247.2" fill="black" stroke="none" visibility="hidden"></rect></g></mask><linearGradient x1="0" x2="1" y1="0.578" y2="0.595" id="c0ed9ed8-ca80-4d54-9334-3693adb63ebf"><stop stop-color="#6ee2f5" offset="0"></stop><stop stop-color="#6454f0" offset="1"></stop></linearGradient><rect width="190.69577530990517" height="247.2" fill="#ffffff" mask="url(#cb6c57e9-7fea-4e5f-a791-ed2e8586a43d)" data-fill-palette-color="accent"></rect></svg><rect width="190.69577530990517" height="247.2" fill="none" stroke="none" visibility="hidden"></rect></g></svg></g></svg>